<?xml version="1.0" encoding="UTF-8"?>
<svg width="64" height="64" viewBox="0 0 64 64" fill="none" xmlns="http://www.w3.org/2000/svg">
    <path d="M32 8C18.745 8 8 18.745 8 32C8 45.255 18.745 56 32 56C45.255 56 56 45.255 56 32C56 18.745 45.255 8 32 8ZM32 52C20.954 52 12 43.046 12 32C12 20.954 20.954 12 32 12C43.046 12 52 20.954 52 32C52 43.046 43.046 52 32 52Z" fill="#4ECDC4"/>
    <path d="M32 20C28.686 20 26 22.686 26 26C26 29.314 28.686 32 32 32C35.314 32 38 29.314 38 26C38 22.686 35.314 20 32 20Z" fill="#4ECDC4"/>
    <path d="M32 32C30.343 32 29 33.343 29 35V41C29 42.657 30.343 44 32 44C33.657 44 35 42.657 35 41V35C35 33.343 33.657 32 32 32Z" fill="#4ECDC4"/>
    <path d="M32 44C30.343 44 29 45.343 29 47C29 48.657 30.343 50 32 50C33.657 50 35 48.657 35 47C35 45.343 33.657 44 32 44Z" fill="#4ECDC4"/>
</svg> 