<?xml version="1.0" encoding="UTF-8"?>
<svg width="64" height="64" viewBox="0 0 64 64" fill="none" xmlns="http://www.w3.org/2000/svg">
    <path d="M32 8C18.745 8 8 18.745 8 32C8 45.255 18.745 56 32 56C45.255 56 56 45.255 56 32C56 18.745 45.255 8 32 8ZM32 52C20.954 52 12 43.046 12 32C12 20.954 20.954 12 32 12C43.046 12 52 20.954 52 32C52 43.046 43.046 52 32 52Z" fill="#FF9F43"/>
    <path d="M32 20C30.343 20 29 21.343 29 23V41C29 42.657 30.343 44 32 44C33.657 44 35 42.657 35 41V23C35 21.343 33.657 20 32 20Z" fill="#FF9F43"/>
    <path d="M32 16C30.343 16 29 17.343 29 19C29 20.657 30.343 22 32 22C33.657 22 35 20.657 35 19C35 17.343 33.657 16 32 16Z" fill="#FF9F43"/>
    <path d="M32 42C30.343 42 29 43.343 29 45C29 46.657 30.343 48 32 48C33.657 48 35 46.657 35 45C35 43.343 33.657 42 32 42Z" fill="#FF9F43"/>
</svg> 